HIERARCHY
ROOT pelvis
{
  OFFSET 0 0 0
  CHANNELS 6 Xposition Yposition Zposition Zrotation Xrotation Yrotation
  JOINT pelvis_right_femur
  {
    OFFSET -11.43119 -3.542788 0.2090856
    CHANNELS 3 Zrotation Xrotation Yrotation
    JOINT right_femur_tibia
    {
      OFFSET -1.028693 -40.73281 5
      CHANNELS 3 Zrotation Xrotation Yrotation
      JOINT right_tibia_foot
      {
        OFFSET -0.5013517 -42.05707 -5
        CHANNELS 3 Zrotation Xrotation Yrotation
        End Site
        {
          OFFSET 0 -5 10
        }
      }
    }
  }
  JOINT pelvis_left_femur
  {
    OFFSET 11.43119 -3.542788 0.2090856
    CHANNELS 3 Zrotation Xrotation Yrotation
    JOINT left_femur_tibia
    {
      OFFSET 1.028693 -40.73281 5
      CHANNELS 3 Zrotation Xrotation Yrotation
      JOINT left_tibia_foot
      {
        OFFSET 0.3200228 -42.98253 -5
        CHANNELS 3 Zrotation Xrotation Yrotation
        End Site
        {
          OFFSET 0 -5 10
        }
      }
    }
  }
  JOINT pelvis_spine1
  {
    OFFSET 0 8.64413 -3.209807
    CHANNELS 3 Zrotation Xrotation Yrotation
    JOINT spine1
    {
      OFFSET 0 29.53957 -1.762685
      CHANNELS 3 Zrotation Xrotation Yrotation
      JOINT spine2
      {
        OFFSET 0 16.36153 -0.1422377
        CHANNELS 3 Zrotation Xrotation Yrotation
        JOINT neck
        {
          OFFSET 0 11.60093 5
          CHANNELS 3 Zrotation Xrotation Yrotation
          End Site
          {
            OFFSET 0 20 0
          }
        }
      }
      JOINT right_manubrium
      {
        OFFSET -4.671311 15.89868 4
        CHANNELS 3 Zrotation Xrotation Yrotation
        JOINT right_clavicle
        {
          OFFSET -13.601 1.573642 -2.74176
          CHANNELS 3 Zrotation Xrotation Yrotation
          JOINT right_humerus
          {
            OFFSET -0.06331682 -27.72702 2.252146
            CHANNELS 3 Zrotation Xrotation Yrotation
            JOINT right_radius
            {
              OFFSET -0.5696302 -23.92083 0.4042105
              CHANNELS 3 Zrotation Xrotation Yrotation
              End Site
              {
                OFFSET 0 -15 0
              }
            }
          }
        }
      }
      JOINT left_manubrium
      {
        OFFSET 4.671311 15.89868 4
        CHANNELS 3 Zrotation Xrotation Yrotation
        JOINT left_clavicle
        {
          OFFSET 13.601 1.573642 -2.74176
          CHANNELS 3 Zrotation Xrotation Yrotation
          JOINT left_humerus
          {
            OFFSET 0.000209614 -29.01858 1.101395
            CHANNELS 3 Zrotation Xrotation Yrotation
            JOINT left_radius
            {
              OFFSET -0.2288314 -24.59216 1.790347
              CHANNELS 3 Zrotation Xrotation Yrotation
              End Site
              {
                OFFSET 0 -15 0
              }
            }
          }
        }
      }
    }
  }
}
MOTION
Frames: 11
Frame Time: 0.0416666666667
-0.1747102 47.92574 0.1889847 -3.691048 -21.62228 -1.729506 -53.61643 -57.84832 -42.65903 -180 81.32266 -180 10.8113 2.407346 3.878924 62.81855 -51.12194 50.11943 -180 71.82307 -180 -7.23022 -7.515857 -12.2165 0.9379095 17.77761 3.18855 7.013711 15.4463 -7.785754 -14.7768 6.892135 14.84321 5.603628 -24.07867 7.92597 18.90216 -11.04404 28.7205 -63.96199 -32.41012 14.47452 0 -68.64395 0 15.65293 -14.65773 6.956815 -23.51311 -35.31774 -1.190923 55.49219 -22.343 -23.01619 0 -65.52188 0 -11.63637 -20.05424 10.82804
-0.2224062 47.92169 0.1621632 -3.745837 -21.55921 -2.004033 -53.61178 -58.02321 -42.85816 -180 81.37281 -180 10.77166 2.496119 3.987404 62.93814 -51.05092 50.10112 -180 71.81832 -180 -7.26221 -7.551941 -12.07001 1.000279 17.93677 3.140431 6.691939 15.61322 -7.424167 -15.10514 6.945253 17.57988 5.158103 -23.50141 11.43691 18.79635 -11.00932 27.6201 -64.26765 -32.06884 14.75679 0 -67.99682 0 16.31881 -13.30449 8.946599 -22.60371 -36.36391 -0.7223577 57.50286 -21.11276 -20.51609 0 -63.61305 0 -11.35797 -20.61355 11.28227
-0.2614789 47.92355 0.1237421 -3.785382 -21.4558 -2.264457 -53.64064 -58.22815 -43.06508 -180 81.42132 -180 10.73786 2.575861 4.06972 63.05264 -51.01286 50.11366 -180 71.81896 -180 -7.295556 -7.592313 -11.93508 1.035647 18.15648 3.135303 6.415134 15.7646 -7.028266 -15.43328 6.989204 20.12478 4.681365 -23.02674 14.70853 18.7571 -10.82219 26.66063 -64.45775 -31.71362 15.14775 0 -67.3026 0 16.88998 -11.97829 10.90153 -21.58914 -37.62902 -0.3263824 59.4713 -19.89142 -17.94256 0 -61.06294 0 -11.12805 -21.08891 11.68382
-0.2846327 47.93186 0.09657849 -3.833597 -21.31185 -2.504497 -53.71319 -58.44714 -43.29007 -180 81.45791 -180 10.71365 2.637936 4.117984 63.19331 -51.00058 50.17302 -180 71.81447 -180 -7.327221 -7.637667 -11.82673 1.004662 18.40898 3.169054 6.257358 15.88134 -6.704372 -15.64891 7.03379 22.28136 4.247336 -22.68287 17.53227 18.7927 -10.5251 25.88762 -64.53579 -31.37633 15.59356 0 -66.68329 0 17.37436 -10.7253 12.78555 -20.48361 -39.03429 -0.03285885 61.35684 -18.70677 -15.42866 0 -57.83213 0 -10.98718 -21.46052 12.0196
-0.2963725 47.92483 0.1089398 -3.89018 -21.15163 -2.668306 -53.80273 -58.6543 -43.48653 -180 81.47327 -180 10.69662 2.671975 4.12916 63.40453 -51.0197 50.31983 -180 71.7826 -180 -7.353707 -7.69145 -11.7732 0.8934998 18.66688 3.213104 6.245651 15.94177 -6.47837 -15.67892 7.066786 23.97495 3.926547 -22.50242 19.82922 18.89815 -10.1594 25.30042 -64.51769 -31.04556 16.03163 0 -66.21784 0 17.75974 -9.590977 14.58494 -19.30985 -40.52657 0.1217057 63.12866 -17.60585 -13.07197 0 -53.92163 0 -10.9588 -21.70412 12.29778
-0.3057424 47.90728 0.1495188 -3.955966 -20.97281 -2.735634 -53.86649 -58.83949 -43.62559 -180 81.46576 -180 10.6904 2.668948 4.095222 63.71614 -51.04959 50.57103 -180 71.73616 -180 -7.373278 -7.753282 -11.78616 0.6821811 18.93294 3.243487 6.391625 15.98918 -6.388111 -15.50966 7.124029 25.26089 3.758692 -22.45903 21.66854 19.11189 -9.827137 24.82406 -64.42352 -30.74153 16.34359 0 -66.10373 0 18.01909 -8.639606 16.30335 -18.13473 -42.00124 0.1309762 64.72944 -16.59132 -10.97029 0 -49.48386 0 -11.05272 -21.81541 12.52028
-0.2702691 47.91663 0.202589 -4.07512 -20.79053 -2.764871 -53.79665 -58.97804 -43.61658 -180 81.46336 -180 10.69468 2.635383 4.011902 64.08816 -51.05902 50.89001 -180 71.66261 -180 -7.380251 -7.814169 -11.87367 0.3738111 19.08323 3.17425 6.697209 15.91896 -6.503618 -15.13255 7.395248 26.22573 3.80875 -22.42899 23.16814 19.56008 -9.782099 24.57331 -64.20602 -30.85954 16.42298 0 -66.93008 0 18.14599 -8.008096 17.96298 -17.08175 -43.3766 -0.02232021 66.10941 -15.6004 -9.144203 0 -44.62309 0 -11.25607 -21.79091 12.69168
-0.202112 47.91707 0.2773117 -4.227807 -20.59285 -2.690621 -53.71046 -59.05452 -43.55777 -180 81.46856 -180 10.70587 2.573244 3.882392 64.55008 -51.10338 51.3122 -180 71.5774 -180 -7.378515 -7.878457 -12.02816 0.09227494 19.25871 3.073394 7.004101 15.82178 -6.6741 -14.57541 7.652395 26.92287 4.029941 -22.48518 24.35868 19.91532 -9.808263 24.39507 -64.04759 -30.90126 16.38633 0 -67.59535 0 18.22398 -7.43347 19.45861 -16.17075 -44.69116 -0.3699586 67.25977 -14.7496 -7.564449 0 -39.67099 0 -11.54054 -21.68854 12.78045
-0.1325578 47.94042 0.352228 -4.406732 -20.40283 -2.561958 -53.52171 -59.09244 -43.40638 -180 81.49007 -180 10.72624 2.490504 3.716305 65.01627 -51.15131 51.75227 -180 71.5105 -180 -7.365331 -7.937454 -12.23216 -0.1984831 19.42403 2.983468 7.239931 15.74494 -6.858693 -13.86616 7.896334 27.41165 4.415494 -22.59712 25.29674 20.10136 -9.811867 24.27772 -63.94942 -30.86074 16.37052 0 -68.02451 0 18.30384 -6.849776 20.81531 -15.47259 -45.93534 -0.9354562 68.16411 -14.09848 -6.228738 0 -34.91963 0 -11.9079 -21.5306 12.76818
-0.06216013 47.97217 0.4088659 -4.60842 -20.24074 -2.412377 -53.24474 -59.09782 -43.18299 -180 81.54 -180 10.74766 2.402854 3.531693 65.47539 -51.20583 52.17332 -180 71.46733 -180 -7.342905 -7.987907 -12.44159 -0.4842335 19.5575 2.890111 7.383877 15.67903 -7.064493 -13.1297 8.150973 27.74574 4.892491 -22.7249 26.0057 20.18954 -9.816795 24.17355 -63.85995 -30.81763 16.37757 0 -68.50551 0 18.3841 -6.381187 22.06666 -14.9661 -47.10649 -1.608626 68.87126 -13.59426 -5.064096 0 -30.5504 0 -12.31151 -21.34211 12.66701
0.01040585 47.99975 0.4509621 -4.831186 -20.09903 -2.276242 -52.91872 -59.09326 -42.93363 -180 81.60252 -180 10.77073 2.321089 3.345316 65.92393 -51.27249 52.562 -180 71.42147 -180 -7.319349 -8.037435 -12.63616 -0.7291217 19.68333 2.780373 7.43495 15.6276 -7.267394 -12.4754 8.355996 27.96511 5.372592 -22.86815 26.49404 20.27161 -9.846493 24.04246 -63.79468 -30.73963 16.33758 0 -68.92092 0 18.44364 -6.000562 23.19462 -14.61874 -48.16218 -2.280536 69.40372 -13.19026 -4.054269 0 -26.70081 0 -12.72781 -21.15059 12.47169
